<?xml version="1.0" standalone="no"?>
<!DOCTYPE svg PUBLIC "-//W3C//DTD SVG 20010904//EN"
 "http://www.w3.org/TR/2001/REC-SVG-20010904/DTD/svg10.dtd">
<svg version="1.0" xmlns="http://www.w3.org/2000/svg"
 width="52pt" height="40pt" viewBox="0 0 119.000000 96.000000"
 preserveAspectRatio="xMidYMid meet">

<g transform="translate(0.000000,96.000000) scale(0.100000,-0.100000)"
fill="#0f83d6" stroke="none">
<path d="M323 792 l-82 -47 -1 -105 0 -105 60 -33 c59 -33 60 -34 60 -75 l0
-42 93 -52 c52 -29 97 -53 100 -53 4 0 7 49 7 109 l0 110 -94 55 c-52 31 -97
56 -100 56 -3 0 -6 -20 -6 -45 0 -25 -2 -45 -4 -45 -3 0 -21 9 -40 21 l-36 21
0 78 0 79 62 35 c57 32 65 34 84 21 18 -11 25 -12 39 -1 16 12 16 14 -11 33
-16 11 -34 22 -39 26 -6 3 -47 -16 -92 -41z"/>
<path d="M723 799 l-60 -40 -34 20 -34 20 -93 -53 c-51 -29 -95 -55 -98 -58
-6 -7 174 -111 191 -111 12 0 195 102 195 109 0 2 -18 13 -41 24 -44 23 -43
32 8 62 28 16 30 16 91 -18 l62 -35 0 -80 c0 -62 -3 -81 -15 -85 -8 -4 -15
-17 -15 -31 0 -14 3 -23 8 -21 67 33 62 21 62 137 0 105 0 106 -28 121 -15 9
-52 30 -82 47 l-56 32 -61 -40z"/>
<path d="M723 554 l-93 -55 0 -109 c0 -61 2 -110 5 -110 3 0 24 9 45 20 l40
20 0 -39 c0 -38 -2 -41 -62 -74 l-63 -36 -60 34 c-33 18 -62 41 -64 51 -3 17
-28 43 -42 44 -8 0 -9 -63 -1 -76 10 -14 151 -94 166 -94 7 0 47 19 89 42 72
41 77 45 77 78 1 78 11 108 41 120 l29 12 0 114 c0 63 -3 114 -7 114 -5 -1
-50 -25 -100 -56z"/>
</g>
</svg>
